
<svg width="89" height="20" viewBox="0 0 89 20" fill="none" xmlns="http://www.w3.org/2000/svg">
<path d="M0 0.299988V19.3H3.48387V5.96665L9 11.9667V6.63332L2.90323 0.299988H0Z" fill="white"/>
<path d="M20 0.299988V19.3H16.5161V5.96665L11 11.9667V6.63332L17.0968 0.299988H20Z" fill="#334BFF" stroke="white" stroke-width="0.6"/>
<path d="M23 0.299988V19.3H26.4839V5.96665L32 11.9667V6.63332L25.9032 0.299988H23Z" fill="white"/>
<path d="M43 19.3V0.299988H39.5161V13.6333L34 7.63332V12.9667L40.0968 19.3H43Z" fill="white"/>
<path d="M55 0.299988V4.23589H49.6562V15.3876H55V19.3H49.375L46 17.0276V2.59593L49.375 0.299988H55Z" fill="white"/>
<path d="M57 15.3V19.3H62L65.5 17.8V13.3H62V15.3H57Z" fill="white"/>
<path d="M57 4.29999V0.299988H62L65.5 1.79999V6.29999H62V4.29999H57Z" fill="white"/>
<path d="M77.5 0.299988V3.96665H71.875V7.63332H77.5V11.3H71.875L68.5 9.1611V2.43888L71.5938 0.299988H77.5Z" fill="white"/>
<path d="M79.5 19.3V15.6333H85.125V11.9667H79.5V8.29999H85.125L88.5 10.4389V17.1611L85.4062 19.3H79.5Z" fill="white"/>
<path d="M72.1562 15.5105H77.5V19.3H71.875L68.5 17.0895V13.3H72.1562V15.5105Z" fill="white"/>
<path d="M84.8438 4.08946H79.5V0.299988H85.125L88.5 2.51051V6.29999H84.8438V4.08946Z" fill="white"/>
</svg>
