<svg width="275" height="338" viewBox="0 0 275 338" fill="none" xmlns="http://www.w3.org/2000/svg">
<path d="M99.4414 70.1707L122.832 110.684L60.6809 146.567L84.0712 187.08L146.222 151.197L169.612 191.71L107.462 227.593L56.5266 225.49L13.6444 151.216L34.183 107.848L99.4414 70.1707Z" stroke="black" stroke-dasharray="4 4"/>
<path d="M242.743 267.345L219.353 226.831L281.504 190.949L258.113 150.435L195.962 186.318L172.572 145.805L234.723 109.922L285.658 112.025L328.54 186.299L308.002 229.668L242.743 267.345Z" stroke="black" stroke-dasharray="4 4"/>
<path d="M137.428 272.321L196.472 238.232L220.646 280.103L158.495 315.985L107.103 313.091L82.929 271.221L123.327 247.897L137.428 272.321Z" stroke="black" stroke-dasharray="4 4"/>
<path d="M204.755 65.1943L145.712 99.2829L121.538 57.4128L183.689 21.53L235.081 24.4245L259.255 66.2947L218.857 89.6185L204.755 65.1943Z" stroke="black" stroke-dasharray="4 4"/>
</svg>
