<svg width="181" height="24" viewBox="0 0 181 24" fill="none" xmlns="http://www.w3.org/2000/svg">
<path d="M16.7706 23.1839C16.8872 23.1603 17.3659 23.2523 17.5616 23.2477C17.3296 23.548 16.3388 23.2701 16.7706 23.1839ZM36.5527 1.03409C36.3978 1.11046 36.2425 1.18683 36.0869 1.26318C36.5276 1.31253 37.1245 1.25614 37.5339 1.32826C37.6008 1.34038 37.4273 1.56134 37.5857 1.5711C37.7439 1.58079 37.7134 1.279 37.9459 1.24656C38.2059 1.21107 39.3984 1.42062 39.8095 1.41548C41.3579 1.39481 42.9262 1.22326 44.4964 1.35586C42.8811 1.57275 44.4989 1.80581 44.9658 1.71205C45.0675 1.69087 45.0484 1.12669 46.7 1.28332C47.5352 1.36402 47.0932 1.88203 47.7583 1.89824C47.9332 1.90264 48.1821 1.87444 48.5387 1.79879C47.1942 1.21629 48.5207 1.27397 49.5906 1.27869C49.7815 1.27853 51.2588 1.3991 51.9251 1.39671C52.1474 1.39504 52.5062 1.11286 52.8048 1.11579C53.0091 1.11798 53.1614 1.28426 53.4682 1.28785C54.8942 1.30645 56.3 1.36233 57.7014 1.49465C56.8389 2.20339 58.3276 1.85173 58.3897 1.89216C58.7118 2.11566 57.1995 2.08877 57.7894 2.25038C58.6251 2.27369 59.454 2.29981 60.2737 2.32666C59.6069 2.19282 61.2027 1.74656 61.4702 2.01114C61.3994 1.33817 65.1008 2.81985 65.6791 2.62877C65.7994 2.58841 65.0458 2.21475 66.839 2.47004C67.033 2.49794 66.9468 2.69468 67.0493 2.68173C67.1093 2.67384 67.5175 2.05608 67.893 2.43104C68.0321 2.56754 67.0821 2.93792 69.1156 2.87827C68.3421 2.18672 71.9459 2.67106 72.5975 2.86085C72.4669 2.76723 72.3374 2.6736 72.2091 2.57999C72.8593 2.84665 72.9872 2.63044 73.1326 2.64915C73.729 2.72469 74.531 2.98272 75.1012 2.98593C75.1152 2.98602 75.1288 2.98592 75.1422 2.98566C75.8681 2.97943 75.9239 2.59605 76.77 2.80117C76.5726 2.69942 76.3664 2.59772 76.1588 2.49685C76.781 2.55235 77.3652 2.61401 77.869 2.66835C76.6089 3.12291 78.1434 2.71242 78.2088 2.7042C78.3531 2.69365 78.1342 2.90004 78.3743 2.88747C78.3989 2.88433 78.3783 2.67655 78.7379 2.6741C79.4834 2.66716 79.3535 2.91881 79.6677 2.93078C79.6965 2.93044 79.6037 2.74115 80.1536 2.71931C81.9308 2.64144 80.136 2.86333 80.0716 2.88466C79.9864 2.91357 80.5412 3.72195 79.0801 3.37604C79.5664 3.48878 79.6042 3.83395 79.6595 3.84523C79.7087 3.85552 80.5843 3.84094 80.6394 3.83C81.0783 3.7275 80.703 3.47965 80.7893 3.44029C80.8601 3.4097 81.933 3.74679 82.2159 3.04399C82.7259 3.70783 81.8878 3.63239 81.0217 3.70612C80.8849 3.83661 81.8465 3.99411 81.8967 3.99417C83.1534 4.02151 82.4741 3.46852 82.7522 3.13117C82.8952 2.95445 83.4169 3.33036 82.9413 2.83996C84.0926 2.80942 83.3919 3.07607 83.4637 3.11878C83.5818 3.18151 83.9786 3.04947 84.0335 3.06858C84.1091 3.09687 83.8424 3.25985 84.1417 3.32282C84.189 3.33203 84.6647 3.05152 84.0573 2.90605C84.4177 2.92917 84.6056 2.89355 84.7324 2.88998C84.884 2.88532 84.9309 2.93138 85.0849 3.20811C85.6722 2.28155 85.4916 3.76382 85.7192 3.81838C86.3239 3.96188 86.1497 3.22769 86.1833 3.19232C86.4062 2.966 88.0703 3.22945 88.4827 3.12549C88.3182 3.65239 87.1618 3.12341 86.9001 3.22347C86.0387 3.55754 88.1146 3.49591 87.485 4.15422C87.7452 3.97392 88.0204 3.79355 88.2786 3.61294C88.7576 4.04154 88.0757 4.22437 89.376 4.07446C89.5891 3.70763 88.4571 4.12843 88.6842 3.83969C88.8215 3.67043 89.572 3.63711 89.591 3.54745C89.6046 3.43966 88.9205 3.56465 89.0296 3.39911C89.2682 3.04275 91.7547 3.39095 89.8579 3.58072C90.3885 3.57639 90.6552 4.2895 91.1184 4.06848C91.4143 3.92473 89.7485 2.93853 92.251 3.12238C92.3065 3.45897 91.2476 3.22062 91.2238 3.24602C91.1855 3.28322 91.3733 4.04271 91.4063 4.08023C91.5239 4.20464 94.0824 3.79868 94.6257 4.17802C94.4084 3.74016 96.5609 4.09466 96.7926 3.95928C96.8547 3.9221 96.621 3.65433 96.6874 3.6256C97.1019 3.45473 98.2277 3.92859 98.7482 3.93738C99.3316 3.94753 99.2556 3.7158 99.2883 3.71604C99.5447 3.7271 99.3411 3.88597 99.4978 3.88436C99.7346 3.88228 101.361 3.9 101.442 3.86593C101.466 3.85545 101.198 3.59297 101.551 3.53911C101.612 3.52963 101.578 3.84501 102.624 3.69724C103.884 3.51884 101.743 3.31656 102.264 2.98113C103.078 3.44063 103.048 2.97607 103.267 3.00986C103.342 3.02219 103.915 3.40992 104.526 3.37588C104.089 3.44645 103.646 3.5166 103.208 3.58624C103.641 3.65018 104.481 3.55269 104.84 3.62529C105.014 3.66068 104.877 3.98738 105.253 3.97264C105.332 3.96764 105.64 3.1726 104.655 3.54244C104.572 3.26143 105.047 3.43809 105.262 3.35472C105.294 3.34175 105.418 2.86822 105.701 3.15654C105.769 3.22707 105.067 4.61654 106.924 3.58656C106.983 3.55332 106.771 3.38511 106.829 3.34827C106.868 3.32341 107.348 3.38362 107.401 3.35804C107.454 3.33072 107.219 3.14738 107.283 3.10908C107.609 2.91177 108.055 3.64843 107.376 3.60568C107.606 3.69319 107.829 3.78069 108.062 3.8678C107.805 3.31112 108.417 3.7019 108.726 3.67714C110.728 3.51642 109.376 3.18445 109.715 2.98668C110.26 2.66799 109.858 3.64194 110.672 3.32912C110.735 3.30421 110.028 3.02665 110.993 3.05032C111.164 3.0543 111.386 3.0674 111.668 3.09215C111.447 3.11256 111.223 3.13266 110.996 3.15244C110.941 3.15734 110.885 3.16223 110.829 3.16711C110.864 3.27482 110.926 3.33672 111.003 3.36672C111.316 3.4867 111.851 3.09479 111.9 3.08675C112.638 2.98428 112.15 3.20076 113.229 2.87506C113.326 2.84564 113.546 2.97017 113.748 2.89361C114.591 2.57817 112.601 2.77888 112.539 2.55823C112.504 2.45491 114.662 2.38279 114.729 2.42679C115.053 2.63749 113.765 2.57658 114.021 2.84538C114.127 2.94751 117.151 2.56426 117.756 2.61842C118.454 2.69306 118.837 3.39902 118.769 2.57382C119.029 3.36781 119.163 2.79924 119.25 2.79713C120.327 2.77507 120.331 2.78196 121.238 2.6095C121.438 2.57114 121.63 2.79824 121.701 2.74857C121.74 2.71891 121.633 2.4652 121.829 2.36147C122.092 2.22342 123.836 2.28379 123.983 2.40895C124.128 2.53779 123.266 2.56436 123.447 2.78296C124.069 2.72947 124.659 2.5912 125.301 2.52826C125.568 2.50271 125.455 2.6879 125.57 2.67534C125.617 2.67118 126.532 2.3929 126.486 2.33674C126.346 2.21507 123.556 2.69139 124.257 2.29948C124.386 2.22537 124.944 2.54073 124.8 2.08523C126.891 1.898 129.172 1.60852 131.885 1.43198C132.48 1.39233 133.031 1.37007 133.567 1.35537C133.053 1.48386 132.509 1.56915 131.905 1.64392C130.509 1.82209 129.12 1.8493 127.926 2.04058C127.695 2.07693 126.94 2.13825 127.067 2.36056C128.423 2.22953 130.269 1.84413 131.861 1.84802C131.911 1.84827 131.749 2.07878 131.939 2.09433C131.942 2.0946 131.945 2.09482 131.949 2.09501C132.369 2.10554 133.513 1.68745 133.702 1.76786C133.74 1.78561 133.093 2.1089 133.307 2.2747C133.85 2.7004 133.918 1.67831 134.345 1.66924C134.698 1.65506 136.824 2.08301 137.315 1.76944C137.858 1.42682 135.786 1.60819 135.925 1.33723C137.355 1.02425 138.742 1.30414 140.014 1.2676C140.036 1.26671 139.842 1.05473 140.125 1.02456C140.619 0.972311 140.745 1.27384 140.984 1.3223C141.242 1.37367 142.143 1.33391 142.263 1.44451C142.278 1.45898 142.094 1.7568 142.067 1.76508C141.676 1.88647 141.536 1.49849 141.5 1.49338C141.365 1.47827 141.233 1.62642 141.11 1.61734C140.907 1.60222 140.795 1.46466 140.527 1.45247C140.341 1.44361 140.521 1.70738 140.341 1.69539C140.276 1.68968 139.562 1.08886 139.497 1.70431C139.511 1.88624 145.209 2.16618 145.741 2.01972C145.264 1.94194 144.784 1.86406 144.302 1.7864C145.281 1.97406 146.447 1.49226 146.523 2.2196C147.991 2.25505 149.439 2.28812 150.856 2.3075C152.959 2.33503 155.067 2.35275 157.143 2.35484C157.757 2.40657 157.451 2.87967 158.465 2.72462C158.202 2.58092 157.933 2.43703 157.658 2.29294C158.191 2.39041 160.537 2.54209 160.912 2.43282C160.961 2.41869 161.014 1.99487 161.591 1.94114C162.114 1.8929 162.184 2.20717 162.472 2.25812C162.709 2.30011 162.958 2.20791 163.025 2.22292C163.076 2.23502 163.103 2.42787 163.233 2.45671C163.638 2.54552 163.295 2.01326 163.709 2.62341C163.616 2.65107 163.522 2.67871 163.427 2.70633C163.897 2.77879 164.58 3.03341 163.869 3.20413C163.752 3.23319 163.846 3.04179 163.758 3.04573C160.208 3.20863 163.057 3.47813 164.291 3.13133C164.619 3.39781 166.384 3.13558 166.431 3.18474C166.519 3.25888 166.225 3.49878 166.638 3.66593C166.723 3.70743 169.036 3.38317 168.23 3.81233C168.059 3.90315 166.932 3.90033 166.668 3.92572C167.348 4.47704 168.771 3.52408 168.937 3.52969C169.62 3.56569 167.683 4.14366 169.208 4.08746C170.403 4.03657 169.246 3.74285 169.693 3.53535C169.924 3.42093 171.397 3.72108 171.327 3.16592C171.852 3.0612 171.567 3.38344 171.634 3.39913C171.68 3.40859 172.222 3.28312 172.694 3.24769L172.068 3.31442C172.05 3.31458 172.046 3.32592 172.056 3.35913C172.06 3.37317 172.115 3.65943 172.121 3.68253C172.128 3.7017 172.135 3.69723 172.224 3.6607C172.303 3.62679 172.496 3.54768 172.51 3.53042C172.52 3.50967 172.282 3.31409 172.332 3.23493C172.351 3.1802 172.763 3.06184 173.301 2.90789C173.531 2.84146 173.797 2.7716 173.831 2.74142C173.892 2.68931 173.551 2.74579 173.273 2.80329C172.713 2.91956 172.321 3.01089 172.381 2.79544C172.554 2.77025 172.821 2.68097 173.206 2.54964C173.953 2.25021 175.815 1.91548 176.47 1.82791C176.235 1.84977 174.414 1.97204 173.92 2.09044C173.969 1.86292 174.969 1.57613 175.81 1.55663C176.638 1.53035 177.151 1.67279 176.571 1.80202C177.313 1.66547 176.821 1.5414 177.24 1.40648C177.367 1.36725 178.272 1.48379 178.42 1.44547C178.465 1.43215 177.575 1.13839 177.763 1.08241C177.955 1.02634 178.732 1.11878 179.3 1.2544C179.883 1.38787 180.33 1.54795 180.391 1.5871C180.762 1.81384 179.296 1.5281 179.055 1.67114C179.042 1.68156 179.385 1.85608 179.67 2.03221C179.962 2.20868 180.21 2.38488 180.215 2.40229C180.197 2.56829 179.907 2.50073 179.59 2.43312C179.276 2.36537 178.926 2.29978 178.981 2.46385C179.342 2.61334 179.652 2.76488 179.935 2.9157C179.313 2.88896 178.393 2.64718 177.05 2.56576C175.701 2.45873 174.09 2.7865 173.785 3.04797C175.245 2.60767 177.332 2.71645 178.114 2.98138C179.011 3.23744 179.362 3.56335 179.266 3.92805C179.189 4.23559 178.359 4.22076 178.363 4.31103C178.45 4.61968 179.524 4.58783 179.538 4.61597C179.56 4.64179 179.568 4.66242 179.563 4.67856C179.563 4.67856 179.563 4.67857 179.563 4.67858C179.548 4.83731 178.072 4.56962 177.911 4.64222C177.759 4.75114 178.349 5.45971 178.3 5.58332C178.298 5.59464 177.132 5.51631 177.483 5.80484C177.863 6.08573 178.654 6.3033 178.667 6.33534C178.805 6.49655 177.327 6.2627 177.207 6.35402C177.198 6.38366 177.984 6.7863 177.967 6.86339C177.972 6.93465 177.355 6.9548 177.061 7.14429C176.858 7.281 177.362 7.48736 177.262 7.49906C177.229 7.50261 176.878 7.43964 176.464 7.42068C176.053 7.39671 175.595 7.44328 175.558 7.46331C175.442 7.51665 175.845 7.681 175.79 7.73638C175.716 7.80515 175.202 7.79994 175.28 7.86577C175.302 7.88764 175.847 7.99234 176.28 8.21462C176.718 8.43009 177.025 8.71364 177.007 8.80116C176.949 9.07796 175.521 8.25027 176.761 9.59467C176.768 9.60188 177.081 9.5701 177.088 9.58112C177.207 9.83879 176.265 9.98783 177.346 10.1682C176.305 10.1208 176.278 10.3169 176.396 10.443C176.52 10.585 176.806 10.7894 176.634 11.0248C176.48 11.1895 175.975 11.2492 175.993 11.2922C176.047 11.543 176.176 11.3451 176.226 11.4746C176.219 11.5378 175.917 11.818 176.011 11.9907C176.026 12.0702 176.325 12.0534 176.369 12.084C176.511 12.275 176.279 12.4189 176.3 12.5421C176.3 12.6191 176.55 12.6757 176.561 12.695C176.548 12.7189 176.159 12.9704 176.155 13.0897C176.123 13.173 176.198 13.3184 176.176 13.3539C176.003 13.5649 176.223 12.9968 176.092 13.8025C176.074 13.8511 176.086 13.8317 176.094 13.8429C176.078 14.0703 176.034 14.0885 176.11 14.2773C176.167 14.6016 175.892 14.4136 176.127 14.6464C175.892 14.8564 175.903 14.8143 176.188 14.8341C175.975 14.8175 175.908 14.901 175.969 15.0083C176.026 15.1168 176.173 15.2349 176.224 15.3446C176.28 15.4541 176.245 15.5674 176.103 15.646C175.968 15.7277 175.748 15.7421 175.82 15.7484C175.782 15.7341 175.814 15.857 175.825 15.9758C175.841 16.0956 175.844 16.2166 175.899 16.2252C175.922 16.2629 176.809 15.7135 176.494 16.7999C176.471 16.8689 176.278 16.8764 176.143 16.8845C176.007 16.8938 175.921 16.9135 176 17.0511C176.781 17.0101 176.81 16.9883 176.624 17.0841C176.427 17.1717 176.012 17.2436 176.024 17.2582C176.025 17.3723 176.151 17.4573 176.424 17.4874C176.679 17.5255 177.152 17.4485 177.124 17.453C177.135 17.4425 175.541 17.892 174.279 18.0222C174.149 18.0245 173.762 18.1001 173.632 18.0912C173.415 18.0865 173.238 18.091 173.148 18.1121C172.626 18.2345 172.126 18.7714 171.99 18.784C171.548 18.8244 171.893 18.5444 171.786 18.4628C171.689 18.3819 170.4 18.9723 170.326 18.9508C170.055 18.8684 170.298 18.5539 170.269 18.5415C169.933 18.3928 168.124 18.7557 167.614 18.7147C167.638 18.9047 168.669 18.8527 168.043 19.1998C167.326 19.6022 167.227 18.766 167.209 18.7305C163.826 18.9328 160.548 19.0208 157.29 19.0816C157.322 19.5289 159.47 19.1527 159.519 19.2088C159.811 19.5541 156.184 19.6119 155.76 19.4552C156.102 19.5475 156.414 19.6398 156.767 19.7311C156.199 20.2528 154.931 19.6013 154.1 19.8348C153.829 19.9106 154.353 20.104 154.341 20.1176C154.038 20.3197 153.553 20.1701 153.91 19.8996C153.19 20.1619 153.296 19.8781 152.728 19.8607C152.699 19.86 152.946 20.0655 152.493 20.1542C152.29 20.1957 151.187 20.2016 151.029 20.3831C150.968 20.4596 151.543 21.2602 151.608 20.5688C152.809 20.8996 151.989 20.252 152.453 20.2653C152.522 20.2683 152.374 20.6558 153.549 20.4655C153.337 21.1632 151.958 20.6517 151.733 20.7367C151.251 20.9125 153.243 21.261 153.596 20.7151C153.437 21.2591 153.721 20.7874 154.181 20.8056C154.671 20.8253 154.459 20.9889 154.722 20.9872C155.43 20.9839 155.132 20.6039 155.735 20.9423C155.146 19.8801 156.737 20.7891 157.219 21.061C156.449 21.1271 155.707 21.1908 154.949 21.253C154.992 21.3087 155.035 21.3644 155.078 21.4201C154.883 21.4142 154.686 21.4083 154.486 21.4022C154.518 21.3481 154.549 21.294 154.58 21.2399C153.539 21.5996 153.311 21.2072 153.222 21.2036C152.486 21.1783 151.719 21.1739 150.923 21.1741C150.536 21.1742 150.154 21.1746 149.792 21.1739C149.626 21.1732 149.736 21.5249 148.539 21.2464C148.159 21.1574 148.519 20.8869 148.089 20.9256C147.546 21.6625 147.561 21.0722 147.401 21.0703C146.944 21.0675 146.666 21.2486 146.623 21.2502C146.061 21.2747 145.243 21.2374 144.634 21.2598C144.623 21.2625 144.938 21.4923 144.543 21.4219C144.404 21.3969 143.167 20.4161 142.094 20.7274C142.373 20.7942 142.651 20.8613 142.931 20.9286C142.596 20.8332 140.315 21.0713 140.873 21.3328C141.212 21.4917 142.05 20.8696 142.14 21.4716C141.352 21.2789 137.265 21.5689 136.997 21.4504C136.955 21.4314 137.21 21.2305 137.151 21.2069C137.101 21.1879 136.22 21.2573 136.105 21.1876C136.033 21.1453 136.418 21.0132 136.384 20.9441C136.346 20.8931 135.273 20.8502 135.233 21.0995C135.48 20.9879 136.224 21.0469 135.843 21.2672C135.793 21.2946 135.533 21.1473 135.477 21.1824C134.936 21.5044 136.585 21.3655 136.874 21.3662C135.971 21.6473 134.644 21.4859 133.828 21.609C133.629 21.6364 133.435 21.6747 133.249 21.7286C132.758 21.5772 133.906 21.3451 133.361 21.2335C132.206 21.0108 133.099 21.5457 133.067 21.5751C132.827 21.8066 131.694 20.8414 131.794 21.6744C131.34 21.6079 131.472 21.4829 130.847 21.6802C130.939 21.7259 131.033 21.7715 131.124 21.8175C130.498 22.3935 128.717 21.4115 128.819 21.302C129.117 21.0077 129.993 21.2767 130.061 21.2577C130.157 21.2308 130.345 20.3425 131.515 20.951C131.888 20.3234 129.741 20.8075 130.679 20.2847C130.05 20.437 127.024 20.4663 126.604 20.7678C126.556 20.8067 126.872 21.3395 126.081 21.1497C125.706 21.0588 126.565 20.942 126.386 20.8344C125.849 20.5487 118.929 21.5073 117.626 21.5633C117.542 21.5695 117.561 21.3915 117.479 21.3985C117.221 21.4207 116.309 21.7392 115.839 21.6826C116.812 21.9563 114.96 22.0834 114.497 22.0661C113.784 22.0437 113.81 21.7311 113.507 21.6778C112.946 21.5808 112.261 21.7064 111.574 21.7951C110.832 21.8938 110.1 21.9472 109.623 21.595C109.687 22.2777 108.07 21.2969 107.347 21.304C106.785 21.3102 105.968 21.7768 106.738 22.0386C105.761 22.025 104.737 22.1682 103.823 22.2217C103.672 22.2307 103.877 22.0259 103.62 22.0475C103.597 22.0509 103.567 22.2494 103.346 22.2728C101.523 22.467 102.406 22.0353 102.064 21.9155C101.872 21.8483 101.731 21.8152 101.628 21.8049C102.69 21.7558 103.913 21.662 104.244 21.6516C103.956 21.219 101.887 21.7652 101.279 21.6525C101.258 21.6484 101.329 21.4066 101.308 21.4051C101.307 21.4051 101.307 21.4051 101.306 21.4052C101.078 21.3892 99.6307 21.4902 99.9311 21.7752C100.012 21.8513 100.679 21.846 101.47 21.8121C101.257 21.8681 101.419 22.1366 101.382 22.1485C100.924 22.2867 99.7984 22.0325 99.4002 21.9996C99.3092 21.9925 99.3169 22.1654 99.302 22.166C98.9395 22.1292 99.0847 21.6341 98.7167 22.1461C98.0571 21.5347 99.945 22.0463 99.8092 21.647C99.7046 21.3423 95.5233 21.5292 95.5388 22.0119C95.5242 21.9601 95.4662 21.8959 95.3477 21.823C95.0854 21.6611 93.9212 21.714 93.7224 21.8034C93.6883 21.821 93.7023 22.2918 93.66 22.2962C93.5518 22.3073 92.1339 21.9384 91.5988 22.2156C91.887 22.282 92.1736 22.3483 92.4601 22.4144C90.7247 22.417 90.9976 22.5566 91.5713 22.6985C91.6002 22.6998 91.6283 22.7177 91.6559 22.7197C92.1089 22.8244 92.6764 22.9248 92.6875 22.962C92.7204 23.1048 89.7745 23.1782 90.3444 22.7422C90.4193 22.683 91.7847 22.8802 91.111 22.5672C90.9893 22.5125 90.1201 22.5992 90.0708 22.5645C89.7655 22.3356 91.6762 22.0367 91.4414 21.7114C90.9794 22.0197 90.3864 21.8556 89.8516 21.9335C89.6104 21.9687 89.5515 22.2045 89.5219 22.2089C89.0711 22.2687 89.3251 22.0222 89.1753 22.0278C89.0962 22.0318 88.213 22.5542 88.383 21.8289C85.4799 22.3444 87.5816 22.3599 89.3578 22.3261C88.7976 22.5886 87.6882 22.4546 87.1994 22.5124C87.019 22.5334 87.1228 22.7765 86.8211 22.8228C86.4954 22.874 85.477 22.8102 84.496 22.7251C83.6422 22.6523 82.8095 22.5622 82.4391 22.5245C82.9283 22.4481 82.7878 22.1816 82.4148 22.1927C82.0459 22.2037 82.3492 22.5621 82.2763 22.5985C82.1946 22.638 80.4291 22.4281 80.1223 22.4608C81.4815 22.3743 81.1755 22.103 80.0363 22.0393C80.2019 21.9691 80.3744 21.8988 80.5398 21.8279C79.8691 21.9168 78.4476 21.455 78.0433 21.5506C77.9798 21.5664 78.1926 21.7992 78.1568 21.8081C77.7975 21.8858 76.6382 21.5873 76.5927 21.6591C76.5417 21.7189 77.0163 21.9353 76.83 22.0149C76.7907 22.0319 76.336 21.7021 75.9146 21.7483C75.7582 21.7654 75.838 21.9803 75.7984 21.9899C75.476 22.0707 75.676 21.7287 75.1173 21.7536C74.8533 21.7665 74.6306 21.9112 74.3548 21.9736C74.179 22.0059 73.9866 22.014 73.7627 21.9646C74.0052 22.0256 74.1991 22.0761 74.3488 22.1179C74.8958 22.2979 74.7167 22.314 74.3408 22.3119C74.0004 22.3085 73.5342 22.2936 73.2023 22.3298C73.0645 22.3449 73.1599 22.7299 72.3193 22.5071C74.1625 21.901 71.8312 22.1227 71.3453 22.0915C71.3195 22.0879 71.3215 21.8372 71.0909 21.8223C71.0715 21.8216 71.0909 21.9921 70.8773 21.9949C68.813 22.0172 70.1399 21.89 69.7587 21.7043C69.5872 21.6247 68.5915 21.8137 68.3117 21.8045C68.2496 21.8018 68.2866 21.6276 68.0478 21.6219C67.6335 21.6125 67.2301 21.7781 66.9553 21.7778C66.9203 21.7767 66.9455 21.5003 66.402 21.56C66.2509 21.5768 66.079 21.6658 66.2856 21.7574C66.9743 22.0595 68.3296 21.6776 69.1066 21.9792C69.8165 22.2548 67.5388 22.1596 67.4177 22.1532C67.3735 22.1517 67.8321 22.0385 67.3755 21.9864C66.9908 21.9429 66.2537 22.3822 65.6905 22.2452C65.6452 22.2349 65.2076 21.8023 65.2311 21.7799C65.2487 21.7637 65.9677 21.7167 65.8683 21.5931C65.8615 21.5793 65.4039 21.5557 65.3526 21.465C65.2869 21.3543 65.1561 20.2986 65.0638 20.2669C64.8251 20.1879 64.9685 20.4354 64.8101 20.4095C64.4696 20.3546 63.3142 19.9747 63.2578 20.3344C63.4482 20.3676 63.6394 20.4008 63.8335 20.4341C62.7575 20.4061 63.2019 20.5877 63.046 20.6463C62.8764 20.7096 62.9408 20.3942 62.5822 20.3421C62.5028 20.3308 60.9828 20.3027 61.0055 20.4381C61.8517 20.2776 61.5212 20.6517 61.5581 20.6611C61.7055 20.696 61.9017 20.4868 62.0995 20.5035C63.4841 20.6239 62.0671 20.8857 62.3879 20.9954C62.4987 21.0325 62.7327 20.8579 62.7804 20.8705C62.9341 20.9113 62.9217 21.158 63.0276 21.1445C63.2754 21.1132 63.0107 20.7468 63.0314 20.7298C63.266 20.5252 64.0929 20.8479 63.5421 21.1956C63.8506 21.3516 63.9213 20.8928 64.1602 21.0923C64.6361 21.4873 63.8963 21.349 63.6847 21.3969C62.9475 21.5718 62.7364 21.3811 61.7051 21.3777C61.3321 21.376 60.885 21.573 60.712 21.5745C60.6016 21.5754 59.6395 20.7326 59.5352 21.9514C59.1517 21.8091 58.5883 20.9673 58.1857 20.9803C57.8255 20.9925 57.9137 21.4311 57.8793 21.4458C57.8261 21.469 57.3955 21.4096 57.2466 21.4623C57.0716 21.5246 57.1472 21.6943 56.873 21.7462C56.1916 21.8752 56.2348 21.436 56.1671 21.4034C55.3851 21.0295 55.703 21.6757 55.5234 21.7166C55.3538 21.7515 53.0731 21.4036 52.5871 21.5478C52.7877 21.4669 52.982 21.386 53.1849 21.3058C52.8442 21.0162 52.4563 21.4512 52.4672 20.9574C52.3638 21.7512 51.6624 21.193 51.4431 21.2069C51.3577 21.2127 51.3601 21.3487 51.2529 21.3512C50.8297 21.3611 49.8854 21.2278 49.659 21.2918C48.668 21.5643 51.1683 22.1197 51.3639 22.1595C50.9648 22.1348 48.7303 22.2592 49.7469 22.6673C49.9012 22.7302 50.1945 22.3808 50.2845 22.3693C50.8897 22.294 50.4072 22.6006 50.4537 22.6323C50.532 22.6835 50.9361 22.3859 51.0416 22.4261C51.0754 22.4391 50.8447 22.7212 51.4153 22.7455C51.1262 23.0152 49.5204 22.7431 49.3024 22.8058C49.2253 22.8282 49.6909 23.4359 48.3113 22.8265C48.3259 22.8825 48.3416 22.9385 48.3569 22.9944C48.0591 22.9979 47.7596 23.0019 47.4516 23.0064C46.9919 23.0137 46.515 23.0224 46.0324 23.0322C46.1204 22.9046 46.5664 22.6511 46.0058 22.7006C45.6901 22.7296 45.9211 23.0173 45.8921 23.0254C45.6298 23.0953 40.4663 22.9884 39.4475 23.0238C39.1045 23.0343 38.1451 23.2645 38.0713 23.2689C37.6321 23.2922 36.081 23.1437 35.7677 23.1762C35.573 23.1971 35.7577 23.4359 35.5849 23.4248C35.4242 23.4141 35.5905 23.1831 35.5428 23.1735C35.149 23.0905 32.1279 23.3922 31.4065 23.1718C31.8479 23.2387 34.0369 22.7793 33.9928 22.6162C33.9835 22.5939 33.4513 22.418 33.3421 22.5036C33.1616 22.3036 32.5375 22.9116 32.1989 22.7915C32.1605 22.7778 32.3122 22.4368 31.7071 22.3737C31.4988 22.3521 30.9511 22.617 30.4018 22.3169C29.6089 22.4611 25.3949 21.9878 25.0976 22.3471C25.0884 22.3664 25.6818 22.4993 25.2782 22.6454C24.7408 22.8392 25.2292 22.1711 24.6037 22.1051C24.5111 22.096 22.7678 22.1376 22.7038 22.1772C22.1655 22.5461 23.6955 22.7259 23.6726 22.7688C23.6189 22.8793 22.3423 22.9245 22.2915 22.8969C22.2429 22.8688 23.2893 22.3872 22.0405 22.5536C22.1815 22.6163 22.3226 22.6789 22.4646 22.7415C21.8785 22.8471 21.8233 22.4987 21.6817 22.4746C21.2414 22.3981 20.7402 22.9138 20.0446 22.2439C19.8571 22.066 20.1823 21.8832 20.1572 21.8566C19.9349 21.6181 19.6218 22.2312 19.2957 21.7572C19.268 21.7213 20.0827 21.4702 18.6774 21.4237C18.7724 21.4715 18.8679 21.5192 18.9639 21.5668C18.7621 21.661 17.3342 21.6661 17.1313 21.6319C16.5693 21.5387 17.0607 21.2489 16.5239 21.2526C16.5174 21.2526 16.5108 21.2527 16.504 21.2529C16.5111 21.2625 16.5173 21.272 16.5225 21.2812C16.5616 21.3477 16.5543 21.403 16.5144 21.4476C16.2968 21.6875 15.2114 21.6183 15.2969 21.3113C15.0389 21.772 13.6786 21.3375 13.0163 21.2908C12.6028 21.2624 11.7496 21.4227 11.616 21.391C11.4577 21.3527 11.5247 21.0334 11.2428 20.9458C11.1538 20.9204 10.2837 21.1087 9.54314 20.7308C9.39921 20.6579 9.13302 20.0941 9.40664 19.9732C9.88492 19.7672 10.7516 20.258 10.7503 19.934C10.7634 19.5885 9.55011 19.725 9.24149 19.6611C7.77137 19.3639 8.64856 19.048 8.61894 18.9347C8.5347 18.6588 7.72591 18.6174 7.69988 18.5912C7.56879 18.4748 8.14531 18.2963 8.16944 18.1323C8.18779 17.9182 7.44096 17.483 7.62015 17.4215C7.88017 17.335 8.57061 17.7013 8.61773 17.6885C9.22962 17.5166 8.43781 16.9714 8.23741 16.7145C8.17436 16.6354 8.45186 16.5289 8.39652 16.5034C7.55928 16.1171 8.17757 17.1893 7.60916 17.0847C7.1086 16.9915 7.77692 16.7068 7.76295 16.6878C7.73365 16.6663 7.13517 16.6105 7.04577 16.4889C7.00638 16.4291 8.61884 15.8942 8.56368 15.6051C8.05748 15.637 7.56165 15.6687 7.05207 15.6987C7.03596 15.326 7.735 15.6443 7.81727 15.6109C7.9752 15.5439 7.56088 15.3298 7.58892 15.2139C7.60075 15.14 8.11558 14.9055 7.67397 14.7678C7.52682 14.7205 7.1936 14.9602 6.65459 14.6586C8.59797 14.4437 7.28607 14.1503 7.2309 14.0151C7.18198 13.8803 8.12892 13.631 7.00647 13.6137C7.00426 12.89 7.04525 13.3876 7.36739 13.2811C7.7681 13.1501 6.88905 12.8568 8.28729 13.1253C8.23595 12.7837 7.08826 12.7348 7.0339 12.7039C6.98354 12.6762 7.24806 12.5266 7.16208 12.4646C6.13855 11.7432 6.84994 12.0886 6.56864 11.652C6.55014 11.6136 5.55419 11.3918 6.31952 11.3822C7.7245 11.3649 8.26626 11.8769 8.567 10.8696C7.56791 10.3627 6.28103 10.9396 5.96547 10.9293C5.49431 10.9137 5.99321 10.738 5.94044 10.6758C5.92416 10.6557 5.50579 10.6447 5.50684 10.6281C5.25787 9.82857 7.34475 10.7394 8.01734 10.644C7.84316 10.5158 7.67709 10.3881 7.5008 10.2595C7.75302 10.271 7.98336 10.2809 8.23505 10.292C7.09044 9.98404 8.20277 10.201 8.52462 9.58701C8.59717 9.44913 7.82597 9.64544 8.71715 9.30494C8.08215 9.17422 8.29059 9.05776 7.70443 9.19922C7.73447 8.94747 9.05265 8.74358 9.57466 8.64392C7.78031 8.24913 8.75462 9.24144 7.21903 8.65022C6.90731 8.94457 7.66072 8.93222 7.59558 8.97984C7.3739 9.15233 6.86665 8.8231 6.21066 9.43326C6.10211 9.53337 6.50932 9.8915 5.87541 9.83277C5.80246 9.82558 5.41903 9.51695 5.42507 9.49688C5.49583 9.28036 5.88902 9.38999 5.9128 9.2992C5.93387 9.2132 5.48545 9.23536 5.48248 9.21092C5.49015 8.93417 5.86078 9.13063 5.8122 9.04052C5.7055 8.84442 4.13382 8.14143 6.22244 8.45758C4.46057 8.65156 5.97848 8.74776 6.66188 8.67267C6.82931 8.65359 6.8992 8.49263 7.1374 8.45075C7.46294 8.39763 7.8271 8.50036 7.98554 8.47999C8.16297 8.45759 7.19531 8.00557 8.62377 8.21192C7.917 7.77941 6.59746 8.10835 5.89449 7.78676C4.4747 7.13788 6.96219 7.18844 7.21063 7.14997C7.2784 7.13991 7.06914 6.90258 7.11473 6.89186C7.18261 6.87588 8.58531 7.06877 8.72412 6.89175C8.87136 6.71608 8.21564 6.86863 8.18177 6.67358C8.17293 6.54387 9.84747 6.41646 8.95544 6.27308C8.33104 6.17437 7.13961 6.619 6.98229 6.04745C7.90602 6.06207 8.83404 6.07381 9.75478 6.08244C9.26446 5.83983 8.77238 5.59632 8.28166 5.35201C9.32805 5.35028 10.1937 5.64258 11.1992 5.39482C8.87755 4.57682 12.0001 4.89618 12.0378 4.81362C12.0485 4.76463 11.1514 4.15933 11.0101 4.04951C11.8421 3.88538 14.3477 3.91599 12.9274 3.15437C13.18 3.32286 13.8497 2.97699 13.8426 2.94775C13.7695 2.64171 12.3608 2.76128 12.6039 2.50116C12.8884 2.19971 13.2311 2.64859 13.6445 2.63633C15.7514 2.56817 15.2477 0.963123 17.342 1.31691C17.3022 1.25875 17.2626 1.20058 17.2231 1.14242C17.3158 1.15057 17.4091 1.15873 17.5031 1.16692C19.5141 1.34986 21.6497 1.48633 23.802 1.60648C24.6868 1.14041 27.0424 0.872002 28.2072 0.931201C28.4408 0.94332 29.5927 1.20186 29.6792 1.24633C29.8401 1.33201 28.9533 1.36037 29.3535 1.52145C29.4362 1.5551 31.3941 1.66772 31.2552 1.39752C31.0353 1.36581 30.3491 1.49915 30.2365 1.4352C29.4438 0.982509 35.4945 1.35331 35.8044 1.16785C35.6686 1.0804 35.5349 0.992943 35.4003 0.905476C35.7819 0.948413 36.1702 0.99127 36.5527 1.03409ZM18.4827 22.4888C18.2366 22.7509 17.6117 22.524 17.2448 22.5839C17.002 22.6229 16.6758 22.8583 16.4389 22.9971C16.1741 23.1583 16.025 23.1913 16.2421 22.6414C16.3133 22.6367 16.3849 22.632 16.4569 22.6273C17.1347 22.5861 17.8171 22.5395 18.4827 22.4888ZM28.9529 23.0662C28.4806 22.9185 28.8503 22.3378 29.237 22.5819C29.28 22.6096 29.5927 23.2648 28.9529 23.0662ZM23.9706 22.7437C23.9929 22.7364 24.4024 22.7575 24.4172 22.7668C24.7846 23.0058 23.5392 22.9407 23.9706 22.7437ZM47.5644 22.5362C47.5236 22.5377 47.4883 22.5425 47.4583 22.5502C47.2459 22.6073 47.3081 22.8159 47.4532 22.895C47.5322 22.9359 47.634 22.9424 47.7313 22.8757C47.7511 22.8622 47.5975 22.5355 47.5644 22.5362ZM47.2185 22.5173C46.8402 22.0375 46.0635 22.9914 46.6721 22.9009C46.7292 22.8916 47.2388 22.5405 47.2185 22.5173ZM27.2667 22.8241C27.3211 22.6427 27.8086 22.734 28.0176 22.7787C28.0107 22.9448 27.4707 22.8054 27.2667 22.8241ZM39.5371 22.7936C39.5593 22.6505 37.8927 22.6594 37.776 22.8479C38.0428 22.7677 39.5197 22.922 39.5371 22.7936ZM43.7814 22.5977C43.7384 22.5728 43.1709 22.6087 43.1877 22.7349C43.4593 22.901 43.9706 22.7103 43.7814 22.5977ZM51.962 22.7457C51.9932 22.7153 51.6097 21.8975 52.565 22.4615C52.7059 22.5442 52.1841 22.7345 52.2351 22.7653C52.3392 22.8253 52.4235 22.8546 52.4908 22.8619C52.0341 22.9111 51.5658 22.9269 51.5192 22.8767C51.3125 22.6397 51.9496 22.7582 51.962 22.7457ZM56.2546 22.3417C56.356 22.216 56.9593 22.3198 57.0952 22.3817C57.1184 22.3932 56.9952 22.7308 57.2706 22.7209C57.4921 22.7124 57.1829 22.3414 57.6097 22.4228C58.0422 22.5049 57.4452 22.7214 57.4826 22.7416C57.5317 22.7679 58.2149 22.6499 58.182 22.8533C58.157 23.0038 57.4413 22.8585 57.2626 22.8807C57.0332 22.909 57.2938 23.1773 56.9177 23.1014C56.6817 23.054 56.8387 22.6174 56.7897 22.5922C56.7477 22.5714 55.9047 22.7815 56.2558 22.3432C56.2554 22.3427 56.255 22.3422 56.2546 22.3417ZM52.6143 22.8469C52.5796 22.8606 52.5393 22.8671 52.4908 22.8619C52.5323 22.8574 52.5735 22.852 52.6143 22.8469ZM19.9089 22.3385C20.1606 22.4828 19.3968 22.6373 19.1193 22.4483C19.1202 22.3036 19.8665 22.3162 19.9089 22.3385ZM53.0473 22.5015C53.7204 22.641 53.211 22.7723 52.6143 22.8469C52.8073 22.7706 52.8227 22.4552 53.0473 22.5015ZM33.3421 22.5036C33.3721 22.5368 33.3911 22.5885 33.3935 22.6735C33.3145 22.5805 33.3075 22.5306 33.3421 22.5036ZM35.0043 22.6556C35.574 22.3967 34.4157 22.4073 34.424 22.5924C34.4269 22.6624 34.9816 22.6659 35.0043 22.6556ZM48.196 22.5717C48.146 22.5456 48.927 21.7772 47.8026 22.3447C48.399 22.4466 47.7676 22.5213 47.775 22.59C47.7967 22.7866 48.8049 22.6154 49.0215 22.7056C49.2043 22.3572 48.3563 22.6576 48.1972 22.5717C48.1968 22.5717 48.1964 22.5717 48.196 22.5717ZM64.2305 23.0147C64.0782 23.2123 63.6201 23.1183 63.3165 23.0876C63.4686 22.8903 63.9302 22.9847 64.2305 23.0147ZM144.159 21.4849C142.096 21.6605 141.84 20.8199 143.718 21.1643C143.754 21.1715 144.285 21.4007 144.159 21.4849ZM127.761 22.2401C127.507 21.9053 128.174 21.7549 128.632 21.843C128.735 21.8629 129.146 22.1794 128.745 22.3091C128.696 21.8679 128.031 21.7899 127.761 22.2401ZM53.4392 22.2831C53.6438 22.0472 54.2447 22.2479 54.5619 22.3C54.3573 22.4912 53.7147 22.371 53.4392 22.2831ZM137.56 21.0515C137.357 21.0273 137.229 21.3486 137.264 21.3744C137.42 21.4927 137.794 21.2289 137.56 21.0515ZM51.4879 22.1719C51.4641 22.0248 52.2738 21.9122 52.3139 22.2751C52.1468 22.2425 51.5039 22.2638 51.4879 22.1719ZM63.6571 22.8706C63.5297 22.7886 64.2221 22.6973 64.4238 22.783C64.3968 22.937 63.7438 22.9242 63.6571 22.8706ZM134.512 21.273C134.358 21.2549 134.002 21.2748 133.979 21.4067C133.941 21.5705 134.451 21.4749 134.512 21.273ZM171.265 20.2295C171.298 20.2849 170.53 20.7709 170.148 20.6952C169.444 20.5504 171.24 20.1933 171.265 20.2295ZM139.511 20.8671C140.104 21.1678 139.445 20.8769 139.474 21.1958C139.869 21.205 140.87 21.2206 140.182 20.9074C140.049 20.8468 139.696 20.8869 139.511 20.8671ZM138.967 20.7636C138.906 20.8673 138.484 21.1967 138.85 21.1702C139.017 21.1576 139.288 20.7939 138.967 20.7636ZM166.211 20.7236C165.607 20.475 168.328 20.4763 168.422 20.5129C168.465 20.5362 168.494 20.5589 168.51 20.5787C168.596 20.4836 169.13 20.4298 169.199 20.6514C169.05 20.6438 168.61 20.6944 168.566 20.672C168.545 20.6628 168.528 20.6538 168.517 20.6444C168.333 20.8576 166.331 20.7744 166.211 20.7236ZM161.779 20.6054C162.422 20.1697 162.568 20.8729 162.511 20.8977C161.793 21.2101 162.251 20.6732 162.228 20.6495C162.172 20.6107 161.675 20.8678 161.781 20.6053C161.781 20.6053 161.78 20.6053 161.779 20.6054ZM165.289 20.6511C165.307 20.6413 165.89 20.6358 165.908 20.6459C166.382 20.8618 164.781 20.8759 165.289 20.6511ZM59.5745 22.041C59.9486 22.1348 59.5601 22.3717 59.3171 22.2628C59.2971 22.2524 59.2462 21.9584 59.5745 22.041ZM138.678 20.8362C138.586 20.7835 136.487 20.6353 136.632 21.0298C136.786 20.9724 139.192 21.1434 138.678 20.8362ZM122.697 22.3277C123.121 22.2874 122.698 22.7041 122.452 22.5893C122.362 22.5467 122.589 22.3381 122.697 22.3277ZM50.4182 21.8027C50.0146 21.9959 50.1154 21.3142 50.4542 21.558C50.4674 21.5675 50.434 21.7952 50.4182 21.8027ZM126.131 22.1495C124.691 22.5535 124.903 21.349 126.84 21.4985C126.788 21.5582 126.736 21.6179 126.684 21.6776C128.863 21.5632 126.85 21.7419 126.318 21.8751C126.119 21.9259 126.314 22.099 126.133 22.1507C126.132 22.1503 126.132 22.1499 126.131 22.1495ZM120.443 22.5143C118.962 21.7992 121.704 22.1191 122.474 21.9254C121.757 22.3437 120.762 22.3821 122.135 22.6077C120.188 22.8583 120.971 22.4483 120.891 22.4292C120.796 22.4065 120.504 22.5453 120.443 22.5143ZM124.192 22.1393C124.267 22.1066 124.911 22.2033 125.125 22.1493C124.853 22.4707 123.664 22.3655 124.192 22.1393ZM157.234 20.8979C157.281 20.6736 157.393 20.5074 157.862 20.5831C157.709 20.698 157.43 20.7992 157.234 20.8979ZM18.06 21.2961C17.7252 21.2678 17.0647 21.155 17.2586 21.3986C17.2878 21.4203 18.0503 21.4282 18.06 21.2961ZM133.053 20.9155C133.009 20.8882 131.483 21.062 132.042 21.24C132.225 21.2877 133.548 21.104 133.053 20.9155ZM140.946 20.6759C140.804 20.6732 140.237 20.7153 140.225 20.7684C140.187 20.951 140.883 20.8505 140.946 20.6759ZM16.3842 20.994C16.3361 20.9686 15.3799 20.9624 15.4758 21.0756C15.6636 21.2905 16.5223 21.0808 16.3842 20.994ZM60.9895 21.6045C61.0696 21.6013 61.1603 21.8502 61.1879 21.8547C61.2532 21.8623 62.7334 21.8607 62.1494 22.1368C62.0487 22.1831 59.9476 21.9317 59.6792 21.8844C59.5947 21.5451 60.4688 21.9172 60.6926 21.8969C60.7314 21.8928 60.7755 21.6161 60.9887 21.6059C60.989 21.6055 60.9892 21.605 60.9895 21.6045ZM159.667 20.6168C159.712 20.4051 161.503 20.22 161.492 20.4759C160.866 20.5253 160.27 20.5717 159.667 20.6168ZM158.761 20.6004C158.383 20.4578 159.268 20.3911 159.532 20.4513C159.544 20.5938 158.806 20.6217 158.761 20.6004ZM137.815 19.9017C137.654 19.9558 138.155 20.2578 138.045 20.3196C137.974 20.3578 137.61 20.2475 137.498 20.3464C137.465 20.3776 137.84 20.662 137.944 20.6481C138.095 20.6292 137.945 20.4025 138.111 20.3987C138.663 20.3867 139.162 20.5464 139.689 20.5407C139.737 20.5398 139.366 20.3796 139.773 20.3804C139.838 20.3803 140.215 20.6197 140.708 20.5844C141.799 19.8405 142.605 20.5766 144.02 20.3186C143.966 20.2478 142.913 20.0522 142.852 20.0451C141.674 19.9141 139.599 19.8961 138.423 19.9093C138.122 19.912 138.269 20.0681 138.139 20.0754C138.037 20.0811 138.153 19.7872 137.815 19.9017ZM18.245 21.1415C18.0909 20.8441 17.5385 21.0075 17.1731 20.9761C17.2964 21.2451 17.8925 21.0641 18.245 21.1415ZM150.856 20.4581C150.683 20.4701 150.14 20.3829 150.097 20.4707C150.038 20.5856 150.821 20.6568 150.856 20.4581ZM69.3561 22.1704C69.3719 22.1633 69.7908 22.1999 69.8014 22.2096C70.158 22.4618 68.9209 22.3518 69.3561 22.1704ZM79.1034 22.7221C79.4427 22.7003 79.7765 22.6209 79.879 22.8613C79.677 22.8185 79.0561 22.8854 79.1034 22.7221ZM92.8334 22.8876C92.7695 22.5777 93.7013 22.7781 93.8779 22.8056C93.8138 22.9435 92.8791 23.111 92.8334 22.8876ZM157.151 19.9262C157.726 19.9355 157.585 19.4682 157.965 19.6743C158.028 19.709 158.236 20.6834 157.593 20.3278C157.479 20.2637 157.918 20.0245 157.151 19.9262ZM127.146 21.4677C127.271 21.2442 127.743 21.2415 128.057 21.2145C128.009 21.375 127.371 21.423 127.146 21.4677ZM14.6487 20.6727C14.3865 20.3698 13.1474 20.5202 13.4409 20.727C13.4916 20.7548 14.4665 20.6526 14.6487 20.6727ZM54.8548 21.4118C55.3501 21.2078 54.3492 21.088 54.0252 21.297C54.1687 21.2885 54.8212 21.4249 54.8548 21.4118ZM89.5924 22.7131C89.6155 22.7039 90.1544 22.7277 90.1798 22.739C90.621 22.9785 89.097 22.9123 89.5924 22.7131ZM75.7542 22.1545C75.9189 21.9765 77.214 22.2146 77.5319 22.4193C77.1788 22.6759 75.4845 22.3708 75.7542 22.1545ZM154.785 20.0894C155.182 20.0757 155.588 20.1288 155.963 20.2052C155.888 20.3644 154.822 20.2073 154.785 20.0894ZM91.5713 22.6985C91.6002 22.6998 91.6283 22.7177 91.6559 22.7197C91.6271 22.713 91.5988 22.7053 91.5713 22.6985ZM145.603 19.983C145.265 19.9179 145.333 20.2078 145.354 20.2169C145.607 20.3126 145.986 20.0565 145.603 19.983ZM17.85 20.6965C17.7389 20.431 17.1247 20.6084 16.779 20.5296C16.8678 20.7406 17.5762 20.7137 17.85 20.6965ZM118.886 22.1006C118.416 21.8527 120.224 21.3857 120.62 21.5312C120.663 21.7056 118.961 22.1366 118.886 22.1006ZM53.373 20.9525C53.348 20.7464 52.6446 20.9655 52.7883 21.068C52.8777 21.1329 53.3871 21.0802 53.373 20.9525ZM121.554 21.5672C121.723 21.4889 122.14 21.6515 122.012 21.7875C121.847 21.962 121.511 21.5892 121.554 21.5672ZM135.555 19.7795C135.489 19.7494 134.686 20.0005 135.033 20.1917C135.268 20.3249 135.294 20.028 135.349 20.0246C135.404 20.0207 136.774 20.3332 135.555 19.7795ZM108.781 22.3691C109.142 22.2822 109.597 22.3626 109.977 22.3471C109.828 22.4779 108.938 22.5339 108.781 22.3691ZM56.064 21.0267C55.982 20.9371 53.6922 20.7756 54.9818 21.0933C55.0549 21.1105 56.3068 21.2903 56.064 21.0267ZM157.151 19.9262C157.079 19.925 156.995 19.9165 156.896 19.8977C156.994 19.9042 157.078 19.9168 157.151 19.9262ZM150.619 19.952C150.754 19.8028 150.076 19.7642 149.877 19.8431C149.816 20.0253 150.6 19.9731 150.619 19.952ZM110.001 22.1387C110.225 22.0476 110.627 22.1278 110.904 22.1098C110.858 22.2499 110.105 22.2769 110.001 22.1387ZM94.5659 22.1658C94.9995 22.2474 95.5355 22.208 95.5436 22.0386C95.5528 22.0651 95.5738 22.0931 95.6088 22.1212C95.6438 22.1491 96.1084 22.0689 96.3118 22.1259C97.5234 22.4672 91.6351 22.3381 95.0462 21.8532C94.8857 21.9574 94.7273 22.0617 94.5659 22.1658ZM74.2485 21.6759C74.0025 21.4594 73.3025 21.688 73.4781 21.7768C73.5963 21.8377 74.4908 21.8938 74.2485 21.6759ZM83.8782 21.946C83.7972 21.9083 83.1138 22.0422 83.0897 22.1502C83.4882 22.2715 84.2166 22.1216 83.8782 21.946ZM72.3511 21.352C72.198 21.314 71.9883 21.6373 72.0055 21.6526C72.1543 21.7809 72.6027 21.5486 72.3511 21.352ZM155.947 19.0472C155.717 18.955 154.967 19.2041 154.818 19.425C154.788 19.3829 154.707 19.3283 154.559 19.2634C154.559 19.2633 154.56 19.2633 154.56 19.2633C154.351 19.1827 148.395 19.1137 152.39 19.5174C152.514 19.5302 152.343 19.3343 152.86 19.3657C152.894 19.368 152.912 19.5288 153.016 19.5359C153.254 19.5516 154.535 19.6421 154.788 19.5096C154.79 19.5394 154.807 19.5676 154.842 19.5933C155.142 19.8226 156.135 19.1183 155.947 19.0472ZM85.2316 21.9327C85.0988 21.8717 84.6568 21.9234 84.6142 22.0649C84.8251 22.1371 85.5468 22.075 85.2316 21.9327ZM56.0235 20.4411C55.764 20.3101 55.0808 20.4941 55.2781 20.6203C55.3991 20.6975 56.3223 20.5912 56.0235 20.4411ZM80.8199 21.9302C82.4634 22.1407 81.2135 21.9271 81.4714 21.7255C81.2616 21.7943 81.0351 21.8623 80.8199 21.9302ZM163.416 19.4146C163.154 19.376 163.448 18.9546 163.733 19.1669C163.824 19.2344 163.562 19.4354 163.416 19.4146ZM176.654 18.0104C176.463 17.8768 176.739 17.7564 176.908 17.7467C177.08 17.7362 177.18 17.8281 177.097 17.9828C177.113 17.9865 176.702 18.0113 176.654 18.0104ZM166.972 18.9761C166.8 19.2341 166.693 19.2701 166.179 19.2352C166.929 19.1258 166.212 18.9446 166.972 18.9761ZM95.5388 22.0119C95.5417 22.022 95.5441 22.0294 95.5436 22.0386C95.5405 22.0295 95.5391 22.0209 95.5388 22.0119ZM70.8551 21.3473C70.6615 21.1278 70.1002 21.1159 70.2569 21.3353C70.2706 21.3556 70.7648 21.4985 70.8551 21.3473ZM154.818 19.425C154.844 19.4624 154.831 19.4869 154.788 19.5096C154.786 19.4815 154.797 19.4549 154.818 19.425ZM73.8574 21.311C73.8418 21.4018 74.1239 21.4726 74.3739 21.5125C74.528 21.5401 74.6591 21.5524 74.6728 21.5454C74.9523 21.3824 74.6882 21.3332 74.3819 21.32C74.1868 21.3116 73.9811 21.3129 73.8574 21.311ZM50.686 19.9999C50.6442 20.0151 50.8988 20.4273 51.0706 20.2739C51.2038 20.1548 50.8394 19.9419 50.686 19.9999ZM168.694 18.7664C168.975 18.7471 169.379 18.7167 169.464 18.9029C169.273 18.8883 168.698 18.9077 168.694 18.7664ZM175.977 17.9263C175.707 18.1363 175.077 18.35 174.347 18.4731C174.209 18.4756 173.799 18.5557 173.66 18.5463C173.481 18.5675 173.294 18.5721 173.135 18.5693C173.119 18.4192 173.378 18.3701 173.648 18.3529C173.783 18.3621 174.183 18.2839 174.318 18.2814C175.048 18.1741 175.753 18.0222 175.977 17.9263ZM156.678 19.1483C156.647 19.1368 155.983 19.0568 156.075 19.2547C156.21 19.5452 156.872 19.2539 156.678 19.1483ZM51.9254 20.2538C52.2184 20.1268 51.5669 19.6823 51.2576 19.9987C51.0977 20.1603 51.8746 20.2747 51.9254 20.2538ZM69.1182 20.986C68.7135 21.0807 69.6943 21.3363 69.8434 21.135C69.663 21.1093 69.2592 20.9524 69.1182 20.986ZM82.7475 21.3874C81.4727 20.7617 82.152 21.8707 82.382 21.7792C82.4123 21.7661 82.778 21.4021 82.7475 21.3874ZM11.6024 19.3094C11.4197 19.383 12.0668 19.7213 12.1648 19.5272C12.2299 19.4061 11.7138 19.2624 11.6024 19.3094ZM101.628 21.8049C101.575 21.8074 101.522 21.8099 101.47 21.8121C101.509 21.8019 101.56 21.7982 101.628 21.8049ZM65.5492 19.9858C66.3858 20.8832 66.3256 20.2247 66.4033 20.2328C66.5703 20.2513 66.9428 20.5018 67.2553 20.4811C66.8957 20.5571 66.5285 20.6322 66.1662 20.7073C66.4517 20.7863 68.8873 21.2298 68.947 21.0939C69.0339 20.9024 68.252 20.9233 68.2308 20.9047C68.1996 20.8785 68.1078 20.3285 68.038 20.3041C67.9262 20.266 65.8702 20.1409 65.5492 19.9858ZM80.0336 21.4128C80.2428 21.4846 80.2937 21.7019 80.3956 21.6535C80.4293 21.6369 80.4451 21.4316 80.5567 21.3818C80.3843 21.3925 80.2073 21.4028 80.0336 21.4128ZM63.9287 20.6536C63.6967 20.3879 64.802 20.5497 64.841 20.58C65.0211 20.7614 64.1212 20.8711 63.9287 20.6536ZM73.4426 21.1106C73.409 21.0947 72.5409 20.978 72.5439 21.1176C72.771 21.2345 73.9159 21.3148 73.4426 21.1106ZM80.6962 21.3719C81.0135 21.4055 81.5954 21.627 81.5351 21.3156C81.5347 21.3155 81.5342 21.3155 81.5338 21.3155C81.2616 21.3352 80.9815 21.354 80.6962 21.3719ZM52.9311 19.6363C52.4161 19.1228 52.6479 19.7552 53.1098 19.9329C53.2626 19.7174 53.0143 19.7199 52.9311 19.6363ZM51.2346 19.2087C51.0837 19.1137 49.5493 19.1707 49.7776 19.4382C49.8542 19.5326 50.7496 19.3218 50.7856 19.3413C50.8469 19.3699 50.5553 19.6502 51.0294 19.6069C51.0048 19.5082 51.2849 19.2399 51.2346 19.2087ZM52.5004 19.3038C51.9834 18.9094 51.8411 19.5972 52.2382 19.6131C52.3911 19.6198 52.5752 19.3607 52.5004 19.3038ZM54.6697 19.4548C54.4814 19.3801 53.9734 19.2609 53.6146 19.4761C54.0825 19.5157 54.5519 19.557 55.0225 19.5998C55.0832 19.4722 54.8353 19.5204 54.6684 19.4548C54.6688 19.4548 54.6692 19.4548 54.6697 19.4548ZM175.802 15.9173C175.792 15.8143 175.815 15.7493 175.882 15.7276C175.946 15.705 176.074 15.7365 176.078 15.7632C176.084 15.9319 175.798 16.0036 175.802 15.9173ZM8.53494 12.8339C8.41518 12.7482 8.34752 12.4862 8.07885 12.6045C8.32692 12.8104 8.59525 13.0173 8.84771 13.223C9.08433 12.8012 8.65851 12.928 8.53494 12.8339ZM7.60714 11.1821C7.64341 11.1738 7.48796 10.4933 7.9398 10.9697C8.25327 11.2924 6.43141 11.4702 6.13059 11.1515C6.49996 11.0382 7.274 11.2472 7.60714 11.1821ZM4.62945 8.08134C4.62004 8.02645 5.32355 7.99422 5.4015 8.03755C5.80212 8.26356 4.74344 8.37355 4.62945 8.08134ZM6.81721 8.35515C6.50938 8.20451 7.21386 8.16715 7.42658 8.25571C7.43539 8.38122 6.8699 8.3777 6.81721 8.35515ZM172.623 6.91901C172.211 6.49228 171.959 7.49502 172.513 7.25481C172.539 7.24353 172.64 6.94009 172.623 6.91901ZM5.36416 7.4525C5.68161 7.60436 4.96515 7.63933 4.73382 7.55044C4.72978 7.42497 5.32202 7.43036 5.36416 7.4525ZM172.277 5.85758C171.749 5.57033 172.017 6.65202 172.08 6.69107C172.235 6.78096 172.587 6.64874 172.9 6.50294L172.553 6.5399C172.618 6.43945 172.672 6.32522 172.692 6.27501C172.616 6.31774 172.565 6.33683 172.523 6.34201L172.887 6.30323C172.183 6.3439 172.489 5.97307 172.277 5.85758ZM170.151 6.70524C169.745 6.85945 170.833 6.98653 171.021 6.66163C170.806 6.69587 170.267 6.66102 170.151 6.70524ZM167.624 6.55252C167.404 6.52856 166.742 6.47563 166.634 6.65476C166.883 6.60919 167.546 6.73655 167.624 6.55252ZM167.09 6.06841C166.736 5.8552 166.694 6.54348 167.076 6.31544C167.091 6.30661 167.103 6.08066 167.09 6.06841ZM165.135 5.92975C164.895 5.66883 164.659 6.34335 165.035 6.34351C165.146 6.34232 165.16 5.95975 165.135 5.92975ZM171.556 4.73006C171.185 4.64464 170.777 5.15765 171.535 5.14323C171.273 5.23864 171.021 5.33427 170.77 5.42985C171.756 5.60782 171.645 4.95881 171.94 4.96159C172.361 4.96714 172.37 5.5123 172.298 5.68846C172.391 5.58423 172.581 5.50072 172.832 5.43382L172.393 5.48055C172.446 5.40971 172.516 5.36233 172.698 5.28642C172.875 5.21286 173.196 5.09539 173.564 4.96798C173.194 5.01665 172.855 5.05149 172.653 5.0348C172.446 5.02035 172.36 4.9638 172.308 4.91509L172.796 4.86313C172.576 4.84321 172.376 4.8288 172.203 4.82135C171.99 4.81175 171.8 4.9768 171.628 4.97469C171.35 4.97088 171.576 4.73617 171.557 4.72993C171.557 4.72998 171.556 4.73002 171.556 4.73006ZM162.549 6.02567C161.868 5.73983 162.301 6.39183 162.693 6.2595C162.709 6.24979 162.566 6.03262 162.549 6.02567ZM4.46933 5.37031C5.56531 5.7124 4.77726 6.03541 6.76112 5.60647C5.93034 5.94816 6.69569 5.88788 6.52806 6.03691C6.39659 6.15495 5.9318 6.01848 6.18528 6.29103C6.01336 6.14056 5.53613 6.05729 5.07055 6.00547C4.83338 5.97962 4.60599 5.96122 4.34026 5.94648C4.20591 5.93993 4.06722 5.93107 3.80187 5.93365C3.75228 5.93401 3.63865 5.9373 3.54347 5.9431C3.43529 5.95035 3.36424 5.95321 3.1517 5.98054C2.96453 6.00533 2.74418 6.04565 2.52039 6.10375C2.2658 6.16191 1.69481 6.37011 1.36654 6.55572C1.47006 6.49984 1.56683 6.45204 1.65747 6.41015C0.921781 6.71852 0.155184 7.41102 0.0325916 7.53331C-0.128598 7.69115 0.322599 7.08245 1.07629 6.59349C1.44203 6.35206 1.83682 6.16262 2.17292 6.03548C2.25422 6.00418 2.34919 5.97156 2.4073 5.95103C2.45021 5.93459 2.49295 5.91876 2.53527 5.90356C2.61992 5.87315 2.70283 5.84532 2.78268 5.81993C3.10678 5.7174 3.36601 5.65792 3.49023 5.61149C4.08486 5.42883 4.23188 5.31942 4.46933 5.37031ZM167.503 4.81594C167.238 4.02413 167.222 5.31049 166.758 4.66848C166.246 5.67608 168.334 4.56686 168.657 5.35927C166.307 5.44074 170.265 6.05066 168.535 4.95193C169.921 5.28773 168.964 4.76455 169.159 4.5917C169.367 4.40758 170.148 4.52004 170.089 4.22308C170.088 4.22312 170.088 4.22316 170.087 4.2232C169.611 4.28732 169.151 4.34829 168.69 4.40605C169.193 5.01693 168.232 4.8989 167.872 4.39328C167.753 4.53413 167.623 4.67552 167.503 4.81594ZM170.199 5.21105C170.147 5.20168 169.126 5.38179 169.208 5.50473C169.345 5.57854 170.813 5.34644 170.199 5.21105ZM174.027 4.43717C173.92 4.4622 173.815 4.48615 173.721 4.50717C173.097 4.65129 172.704 4.71128 172.667 4.93856C172.834 4.89453 173.325 4.82377 173.749 4.61526C173.85 4.56468 173.952 4.50452 174.027 4.43717ZM155.561 5.63279C155.081 5.83964 156.563 5.88036 156.132 5.64799C156.113 5.63713 155.586 5.62318 155.561 5.63279ZM166.454 5.00454C165.969 4.78514 166.239 5.55698 166.573 5.33219C166.592 5.31897 166.476 5.01456 166.454 5.00454ZM5.33658 5.32743C5.39459 5.13815 6.71358 5.36347 6.94782 5.37687C6.80398 5.5472 5.29342 5.54546 5.33658 5.32743ZM175.786 3.47576C174.98 3.25035 173.926 3.3946 173.469 3.54733C172.568 3.83805 172.49 4.2286 172.436 4.22773C172.375 4.2261 172.382 3.91023 172.367 3.90586C172.354 3.90323 172.266 3.92723 172.22 3.94073C172.171 3.95525 172.163 3.96171 172.166 3.96854L172.736 3.90784C172.559 3.92465 172.433 3.94001 172.414 3.94733C172.368 3.96705 172.646 4.37372 172.372 4.52735C172.458 4.48248 172.594 4.4442 172.767 4.41222L172.241 4.4683C172.257 4.42471 172.283 4.41216 172.498 4.35053C172.7 4.29304 173.15 4.15947 173.6 4.04582C173.946 3.95536 174.358 3.87424 174.42 3.85291C174.535 3.81207 174.127 3.766 174.053 3.69762C173.987 3.65112 174.129 3.45188 175.782 3.4759C175.783 3.47585 175.785 3.47581 175.786 3.47576ZM172.298 4.16877C172.424 4.31496 172.206 4.39472 172.22 4.33042L172.759 4.27307C172.748 4.27158 172.738 4.26993 172.729 4.2681C172.529 4.22613 172.59 4.18626 172.751 4.15392L172.203 4.21236C172.192 4.17782 172.274 4.16175 172.298 4.16877ZM171.275 4.08082C171.161 4.05017 170.278 4.09416 170.231 4.29762C170.648 4.51781 171.511 4.15317 171.275 4.08082ZM161.978 4.68482C161.756 4.71755 161.148 4.58281 161.119 4.75694C161.333 4.72581 161.95 4.85937 161.978 4.68482ZM9.96194 4.10903C9.60133 3.94218 10.4601 3.93404 10.708 4.01796C10.7109 4.1341 9.99675 4.12372 9.96194 4.10903ZM166.279 3.35395C166.153 3.31438 163.568 3.56941 163.192 3.65942C163.567 3.78185 166.143 3.66935 166.252 3.59317C166.284 3.57211 166.295 3.36132 166.279 3.35395ZM172.02 2.81913C172.292 2.54238 172.511 2.83511 172.548 2.83646C172.585 2.83788 172.625 2.83817 172.668 2.8378L172.007 2.90828C171.932 2.94335 171.991 2.90609 172.033 3.12364C171.987 3.09948 172.001 3.11199 172.039 3.12164L172.682 3.05312C172.12 3.11725 171.676 3.17802 172.02 2.81913ZM161.752 3.53596C160.842 3.65875 162.595 3.87345 162.35 3.61359C162.337 3.598 161.848 3.52317 161.752 3.53596ZM166.56 3.26277C166.747 3.05228 169.275 3.04491 169.704 2.99883C169.363 3.41109 169.042 3.14883 168.555 3.20706C168.423 3.22322 168.47 3.37826 168.456 3.37963C168.225 3.40491 168.384 3.20921 168.244 3.21714C168.151 3.22711 166.316 3.57147 166.56 3.26277ZM172.173 2.6303C172.219 2.58729 172.398 2.54051 172.646 2.49779L171.956 2.57138C171.889 2.5439 171.829 2.53689 171.931 2.49689C172.022 2.46019 172.278 2.38355 172.307 2.38972C172.566 2.42713 172.271 2.57673 172.079 2.66139C171.874 2.74878 171.904 2.72882 171.976 2.70438L172.655 2.63202C172.396 2.63934 172.212 2.63979 172.173 2.6303ZM166.305 2.93899C166.558 2.48286 167.833 2.69513 166.982 2.97208C166.902 2.9974 166.54 2.82801 166.305 2.93899ZM161.836 3.11199C161.786 3.10099 160.857 3.03969 160.839 3.18055C160.979 3.2324 162.342 3.23943 161.836 3.11199ZM162.297 2.62084C162.275 2.62493 162.499 2.88878 162.07 2.86855C162.033 2.8664 161.961 2.56419 161.405 2.69253C161.298 2.71874 161.132 2.9253 161.144 2.93748C161.732 3.40112 163.43 2.42435 162.297 2.62084ZM172.192 2.38119C172.074 2.26083 172.309 1.86018 172.567 2.03754C172.678 2.11434 172.494 2.35493 172.192 2.38119ZM158.854 3.06504C159.397 2.8225 157.682 2.81276 157.585 2.87268C157.654 3.01628 158.788 3.0895 158.854 3.06504ZM10.9356 2.37464C10.9352 2.37462 10.9348 2.37459 10.9343 2.37456C11.3875 2.45331 11.094 2.62943 11.1147 2.63669C12.0959 2.97635 11.8471 2.52457 12.0079 2.48212C12.353 2.38977 12.2613 2.91649 12.8376 2.72768C11.8948 3.00134 12.7407 2.91148 12.7593 3.1016C12.8163 3.87685 11.5533 2.67357 11.0752 2.80738C11.0087 2.82599 11.4696 3.09879 11.3005 3.1592C10.7541 3.35545 9.15952 2.06913 10.9356 2.37464ZM171.85 2.0839C171.806 1.97371 171.654 2.01219 171.848 2.01107C172.024 2.01263 172.512 1.97187 172.267 2.14232C172.215 2.17379 171.824 2.32899 171.829 2.3167C171.804 2.31348 171.927 2.23782 171.85 2.0839ZM95.639 4.99396C96.0342 4.79684 95.1154 4.56929 94.9457 4.72205C94.8607 4.79824 95.4663 5.08053 95.639 4.99396ZM89.2056 4.15237C88.7421 4.19015 88.2329 5.00447 88.8244 4.88065C88.8851 4.86711 89.2586 4.26594 89.2056 4.15237ZM119.527 3.86611C119.046 3.61587 119.118 4.15383 119.455 4.11643C119.573 4.10325 119.542 3.87403 119.527 3.86611ZM101.344 4.60959C101.295 4.59119 100.728 4.63118 100.75 4.75562C100.96 4.82861 101.663 4.73642 101.344 4.60959ZM119.664 3.77622C119.403 3.89802 119.908 4.24672 120.202 3.83301C120.04 3.88035 119.689 3.76404 119.664 3.77622ZM165.281 1.79425C165.063 2.02875 164.404 1.9927 164.025 2.04681C163.975 1.76071 165.019 1.86101 165.281 1.79425ZM91.2019 4.48699C90.7547 4.68956 91.7079 4.85783 91.6208 4.58876C91.6083 4.57416 91.2188 4.47837 91.2019 4.48699ZM136.004 1.99926C135.651 2.1808 136.794 2.38265 136.474 2.08824C136.461 2.076 136.023 1.98892 136.004 1.99926ZM140.814 2.04647C140.561 1.9875 139.458 2.00774 139.888 2.17477C139.954 2.20007 140.795 2.20384 140.814 2.04647ZM12.0471 2.27622C11.9336 1.97301 12.6901 2.08577 12.7978 2.14344C12.8359 2.16716 12.2055 2.6715 12.0471 2.27622ZM116.534 4.05182C116.302 4.10464 115.665 4.07312 115.57 4.23417C115.854 4.18586 116.637 4.35583 116.534 4.05182ZM93.2306 4.48708C92.8464 4.16515 92.179 4.19655 92.3438 4.61755C93.0758 4.58959 92.2556 4.23942 93.2306 4.48708ZM121.149 3.28229C120.954 3.27807 120.857 3.69413 120.879 3.71109C121.097 3.87103 121.356 3.41865 121.149 3.28229ZM106.563 4.37549C106.547 4.20309 105.901 4.29304 105.989 4.40263C106.017 4.43955 106.575 4.51515 106.563 4.37549ZM156.973 1.94614C156.679 1.79304 157.562 1.6251 157.843 1.8039C157.977 2.06702 157.007 1.96403 156.973 1.94614ZM126.477 2.71081C126.468 2.45346 125.497 2.7363 125.917 2.89192C126.02 2.93125 126.479 2.79725 126.477 2.71081ZM137.504 1.44347C136.776 1.7563 139.858 1.94163 139.046 1.56903C138.993 1.54086 137.569 1.41504 137.504 1.44347ZM142.455 1.61958C142.333 1.5853 142.398 0.723979 142.9 1.05916C142.966 1.10263 142.655 1.32851 142.709 1.38092C142.742 1.41057 143.831 1.53885 143.88 1.51927C143.934 1.49683 143.872 1.22027 143.927 1.1897C143.989 1.15551 144.654 1.40318 145.001 1.40866C145.654 1.41848 145.725 1.18924 145.779 1.18891C145.934 1.18863 146.194 1.35389 146.508 1.35608C147.79 1.36475 149.591 1.24713 150.852 1.45129C151.168 1.49954 151.45 1.56642 151.687 1.65818C151.41 1.61049 151.133 1.58796 150.853 1.58196C150.063 1.56385 149.277 1.69091 148.457 1.73496C148.782 1.25731 146.839 2.09536 147.976 1.54855C147.472 1.66786 142.87 1.7243 142.456 1.61958C142.456 1.61958 142.455 1.61958 142.455 1.61958ZM87.3587 3.90066C87.649 3.60878 86.1669 3.66386 86.0452 4.00255C86.2344 4.05178 87.3194 3.93394 87.3587 3.90066ZM94.186 3.20027C94.3232 3.14925 94.4546 2.57434 95.1747 2.86418C95.1754 2.86418 95.176 2.86418 95.1767 2.86418C95.3881 2.94878 95.1478 3.08949 95.1866 3.13931C95.2006 3.1597 95.8611 3.44382 95.3134 3.49135C94.4797 3.56396 95.2333 3.06389 94.7897 3.05881C94.7377 3.05855 93.8938 3.37107 93.9441 3.43924C93.949 3.4472 94.2016 3.38104 94.2435 3.40936C94.4018 3.51584 94.3251 3.6955 94.3474 3.70401C94.4228 3.72601 95.7499 3.41697 95.9437 3.68318C96.0089 3.76968 93.8215 3.97335 93.7398 3.928C93.6856 3.89983 93.7079 3.40146 93.6519 3.3525C93.6208 3.32821 92.7478 3.51528 92.6307 3.46932C92.5975 3.45606 92.5721 3.44177 92.5535 3.42999C92.6849 3.58427 91.895 3.57267 91.9167 3.39865C91.9331 3.33033 92.4756 3.37031 92.4963 3.38223C92.5049 3.3873 92.5123 3.39427 92.5193 3.39909C92.4073 3.21155 94.2599 3.21905 93.8591 2.93956C94.3942 2.78572 93.7832 3.3499 94.186 3.20027ZM96.7657 2.88543C96.7105 2.93808 96.6554 2.99072 96.6003 3.04336C97.5401 2.91123 98.6241 3.15745 99.7055 3.14713C99.9798 3.14487 99.6618 2.82686 100.022 2.91155C100.31 2.9794 100.632 3.27384 100.476 3.34152C100.438 3.35843 99.8496 3.16976 99.5562 3.19179C98.6903 3.25701 98.9104 3.53009 98.86 3.53793C98.8037 3.54616 98.2576 3.35638 97.9588 3.36663C97.2093 3.39297 96.868 3.56354 95.8414 3.34659C96.4319 3.16337 96.1084 2.77105 96.7657 2.88543ZM131.011 1.32646C131.029 1.18293 131.526 1.20433 131.862 1.19217C131.948 1.18841 132.024 1.18296 132.081 1.17302C132.071 1.22604 131.989 1.25612 131.87 1.27444C131.619 1.31433 131.194 1.28813 131.011 1.32646ZM39.5697 1.48293C39.3751 1.76683 40.819 1.83699 40.4385 1.60073C40.3567 1.54826 39.7471 1.48487 39.5697 1.48293ZM46.0969 1.67359C46.2936 1.59664 45.5068 1.38598 45.5038 1.60589C45.506 1.67628 46.0735 1.68349 46.0969 1.67359ZM108.848 3.01141C108.885 3.00174 109.397 3.05226 109.412 3.06623C109.761 3.35941 108.067 3.2263 108.848 3.01141ZM54.286 1.5246C53.5787 1.68016 55.6801 1.85292 55.0478 1.58755C55.0165 1.5743 54.3196 1.5167 54.286 1.5246ZM57.2049 1.61369C57.0383 1.61441 56.3048 1.48381 56.2895 1.57002C56.269 1.70863 57.1082 1.84797 57.2049 1.61369ZM121.164 2.20221C121.061 1.89205 121.935 2.04103 122.225 1.966C122.329 2.2767 121.453 2.13206 121.164 2.20221ZM115.734 2.41295C119.36 1.91147 118.602 2.65762 115.528 2.58139C115.512 2.37675 115.507 2.44256 115.734 2.41295ZM120.367 2.08485C120.252 2.30234 119.849 2.28018 119.565 2.28957C119.606 2.14308 120.171 2.14173 120.367 2.08485ZM37.8595 1.04446C38.1094 0.78538 39.2073 1.10392 39.0129 1.21082C38.9638 1.23387 37.7704 1.18688 37.8595 1.04446ZM109.164 2.72985C109.066 2.42148 110.218 2.51815 110.305 2.58424C110.666 2.85235 109.252 2.65973 109.164 2.72985ZM126.312 1.27244C126.478 1.00282 127.087 1.04262 127.477 0.990861C127.329 1.22214 126.625 1.23246 126.312 1.27244ZM123.692 1.43726C123.709 1.42584 124.207 1.38302 124.229 1.39124C124.661 1.57481 123.268 1.69498 123.692 1.43726ZM10.4298 0.000784874C10.4501 -0.00584698 10.8353 0.0323505 10.8514 0.0424318C11.1904 0.296709 10.009 0.179357 10.4298 0.000784874Z" fill="#21FFAB" fill-opacity="0.6"/>
</svg>
